HIERARCHY
ROOT Root
{
  OFFSET 0.0 0.0 0.0
  CHANNELS 6 Xposition Yposition Zposition Zrotation Yrotation Xrotation
  JOINT Hips
  {
    OFFSET 0.0 100.0 0.0
    CHANNELS 6 Xposition Yposition Zposition Zrotation Yrotation Xrotation
    JOINT Spine1
    {
      OFFSET 5.003913 -0.037094 -0.013727
      CHANNELS 3 Zrotation Yrotation Xrotation
      JOINT Spine2
      {
        OFFSET 7.125363 -1e-06 0.0
        CHANNELS 3 Zrotation Yrotation Xrotation
        JOINT Chest
        {
          OFFSET 7.594027 1e-06 0.0
          CHANNELS 3 Zrotation Yrotation Xrotation
          JOINT Neck1
          {
            OFFSET 26.313086 -0.460272 -0.181672
            CHANNELS 3 Zrotation Yrotation Xrotation
            JOINT Neck2
            {
              OFFSET 8.045911 0.0 0.0
              CHANNELS 3 Zrotation Yrotation Xrotation
              JOINT Head
              {
                OFFSET 6.432774 0.0 0.0
                CHANNELS 3 Zrotation Yrotation Xrotation
                JOINT HeadEnd
                {
                  OFFSET 16.169773 0.06451 0.00362
                  CHANNELS 3 Zrotation Yrotation Xrotation
                }
                JOINT Jaw
                {
                  OFFSET 0.108741 3.12938 0.002639
                  CHANNELS 3 Zrotation Yrotation Xrotation
                }
                JOINT LeftEye
                {
                  OFFSET 4.45173 8.166359 3.206392
                  CHANNELS 3 Zrotation Yrotation Xrotation
                }
                JOINT RightEye
                {
                  OFFSET 4.436895 8.135758 -3.222429
                  CHANNELS 3 Zrotation Yrotation Xrotation
                }
              }
            }
          }
          JOINT LeftShoulder
          {
            OFFSET 23.218927 5.195579 1.621656
            CHANNELS 3 Zrotation Yrotation Xrotation
            JOINT LeftArm
            {
              OFFSET 15.902118 2e-06 -2e-06
              CHANNELS 3 Zrotation Yrotation Xrotation
              JOINT LeftForeArm
              {
                OFFSET 28.739307 0.0 -1e-06
                CHANNELS 3 Zrotation Yrotation Xrotation
                JOINT LeftHand
                {
                  OFFSET 27.093981 -4e-06 0.0
                  CHANNELS 3 Zrotation Yrotation Xrotation
                  JOINT LeftHandThumb1
                  {
                    OFFSET 2.276781 3.380274 0.83384
                    CHANNELS 3 Zrotation Yrotation Xrotation
                    JOINT LeftHandThumb2
                    {
                      OFFSET 4.705309 -1e-06 -1e-06
                      CHANNELS 3 Zrotation Yrotation Xrotation
                      JOINT LeftHandThumb3
                      {
                        OFFSET 2.798515 0.0 3e-06
                        CHANNELS 3 Zrotation Yrotation Xrotation
                        JOINT LeftHandThumbEnd
                        {
                          OFFSET 3.180793 4e-06 -4e-06
                          CHANNELS 3 Zrotation Yrotation Xrotation
                        }
                      }
                    }
                  }
                  JOINT LeftHandIndex1
                  {
                    OFFSET 3.247786 2.352677 0.137192
                    CHANNELS 3 Zrotation Yrotation Xrotation
                    JOINT LeftHandIndex2
                    {
                      OFFSET 6.367095 1e-06 0.0
                      CHANNELS 3 Zrotation Yrotation Xrotation
                      JOINT LeftHandIndex3
                      {
                        OFFSET 3.662364 0.0 0.0
                        CHANNELS 3 Zrotation Yrotation Xrotation
                        JOINT LeftHandIndex4
                        {
                          OFFSET 2.329242 4e-06 -4e-06
                          CHANNELS 3 Zrotation Yrotation Xrotation
                          JOINT LeftHandIndexEnd
                          {
                            OFFSET 2.767823 1e-06 0.0
                            CHANNELS 3 Zrotation Yrotation Xrotation
                          }
                        }
                      }
                    }
                  }
                  JOINT LeftHandMiddle1
                  {
                    OFFSET 3.163612 0.945023 -0.406112
                    CHANNELS 3 Zrotation Yrotation Xrotation
                    JOINT LeftHandMiddle2
                    {
                      OFFSET 6.276789 3e-06 0.0
                      CHANNELS 3 Zrotation Yrotation Xrotation
                      JOINT LeftHandMiddle3
                      {
                        OFFSET 4.35652 -1e-06 4e-06
                        CHANNELS 3 Zrotation Yrotation Xrotation
                        JOINT LeftHandMiddle4
                        {
                          OFFSET 2.996877 0.0 8e-06
                          CHANNELS 3 Zrotation Yrotation Xrotation
                          JOINT LeftHandMiddleEnd
                          {
                            OFFSET 2.323256 3e-06 -4e-06
                            CHANNELS 3 Zrotation Yrotation Xrotation
                          }
                        }
                      }
                    }
                  }
                  JOINT LeftHandRing1
                  {
                    OFFSET 2.882606 -0.309162 0.107445
                    CHANNELS 3 Zrotation Yrotation Xrotation
                    JOINT LeftHandRing2
                    {
                      OFFSET 6.033198 0.0 4e-06
                      CHANNELS 3 Zrotation Yrotation Xrotation
                      JOINT LeftHandRing3
                      {
                        OFFSET 4.350578 3e-06 0.0
                        CHANNELS 3 Zrotation Yrotation Xrotation
                        JOINT LeftHandRing4
                        {
                          OFFSET 2.651321 2e-06 -7e-06
                          CHANNELS 3 Zrotation Yrotation Xrotation
                          JOINT LeftHandRingEnd
                          {
                            OFFSET 1.937663 1e-06 -4e-06
                            CHANNELS 3 Zrotation Yrotation Xrotation
                          }
                        }
                      }
                    }
                  }
                  JOINT LeftHandPinky1
                  {
                    OFFSET 2.865315 -1.525436 0.575687
                    CHANNELS 3 Zrotation Yrotation Xrotation
                    JOINT LeftHandPinky2
                    {
                      OFFSET 5.54936 1e-06 -8e-06
                      CHANNELS 3 Zrotation Yrotation Xrotation
                      JOINT LeftHandPinky3
                      {
                        OFFSET 3.070974 0.0 -4e-06
                        CHANNELS 3 Zrotation Yrotation Xrotation
                        JOINT LeftHandPinky4
                        {
                          OFFSET 1.549672 1e-06 0.0
                          CHANNELS 3 Zrotation Yrotation Xrotation
                          JOINT LeftHandPinkyEnd
                          {
                            OFFSET 1.952123 0.0 0.0
                            CHANNELS 3 Zrotation Yrotation Xrotation
                          }
                        }
                      }
                    }
                  }
                }
              }
            }
          }
          JOINT RightShoulder
          {
            OFFSET 23.161716 5.296122 -1.380114
            CHANNELS 3 Zrotation Yrotation Xrotation
            JOINT RightArm
            {
              OFFSET -16.027195 -2e-06 1.1e-05
              CHANNELS 3 Zrotation Yrotation Xrotation
              JOINT RightForeArm
              {
                OFFSET -28.736639 4e-06 2e-06
                CHANNELS 3 Zrotation Yrotation Xrotation
                JOINT RightHand
                {
                  OFFSET -27.133619 6e-06 0.0
                  CHANNELS 3 Zrotation Yrotation Xrotation
                  JOINT RightHandThumb1
                  {
                    OFFSET -2.274328 -3.351035 -0.83067
                    CHANNELS 3 Zrotation Yrotation Xrotation
                    JOINT RightHandThumb2
                    {
                      OFFSET -4.703594 -3e-06 2e-06
                      CHANNELS 3 Zrotation Yrotation Xrotation
                      JOINT RightHandThumb3
                      {
                        OFFSET -2.794935 -4e-06 -3e-06
                        CHANNELS 3 Zrotation Yrotation Xrotation
                        JOINT RightHandThumbEnd
                        {
                          OFFSET -3.183852 4e-06 1e-06
                          CHANNELS 3 Zrotation Yrotation Xrotation
                        }
                      }
                    }
                  }
                  JOINT RightHandIndex1
                  {
                    OFFSET -3.253496 -2.33755 -0.127667
                    CHANNELS 3 Zrotation Yrotation Xrotation
                    JOINT RightHandIndex2
                    {
                      OFFSET -6.344434 0.0 0.0
                      CHANNELS 3 Zrotation Yrotation Xrotation
                      JOINT RightHandIndex3
                      {
                        OFFSET -3.654871 0.0 -8e-06
                        CHANNELS 3 Zrotation Yrotation Xrotation
                        JOINT RightHandIndex4
                        {
                          OFFSET -2.327586 -1e-06 0.0
                          CHANNELS 3 Zrotation Yrotation Xrotation
                          JOINT RightHandIndexEnd
                          {
                            OFFSET -2.770001 3e-06 8e-06
                            CHANNELS 3 Zrotation Yrotation Xrotation
                          }
                        }
                      }
                    }
                  }
                  JOINT RightHandMiddle1
                  {
                    OFFSET -3.168223 -0.944764 0.411762
                    CHANNELS 3 Zrotation Yrotation Xrotation
                    JOINT RightHandMiddle2
                    {
                      OFFSET -6.266691 -1e-06 -4e-06
                      CHANNELS 3 Zrotation Yrotation Xrotation
                      JOINT RightHandMiddle3
                      {
                        OFFSET -4.348901 0.0 0.0
                        CHANNELS 3 Zrotation Yrotation Xrotation
                        JOINT RightHandMiddle4
                        {
                          OFFSET -3.00024 2e-06 -4e-06
                          CHANNELS 3 Zrotation Yrotation Xrotation
                          JOINT RightHandMiddleEnd
                          {
                            OFFSET -2.321477 -4e-06 -4e-06
                            CHANNELS 3 Zrotation Yrotation Xrotation
                          }
                        }
                      }
                    }
                  }
                  JOINT RightHandRing1
                  {
                    OFFSET -2.885654 0.293261 -0.119232
                    CHANNELS 3 Zrotation Yrotation Xrotation
                    JOINT RightHandRing2
                    {
                      OFFSET -6.032835 -1e-06 -4e-06
                      CHANNELS 3 Zrotation Yrotation Xrotation
                      JOINT RightHandRing3
                      {
                        OFFSET -4.33881 0.0 -4e-06
                        CHANNELS 3 Zrotation Yrotation Xrotation
                        JOINT RightHandRing4
                        {
                          OFFSET -2.654903 -4e-06 -4e-06
                          CHANNELS 3 Zrotation Yrotation Xrotation
                          JOINT RightHandRingEnd
                          {
                            OFFSET -1.935122 0.0 4e-06
                            CHANNELS 3 Zrotation Yrotation Xrotation
                          }
                        }
                      }
                    }
                  }
                  JOINT RightHandPinky1
                  {
                    OFFSET -2.866241 1.503904 -0.60527
                    CHANNELS 3 Zrotation Yrotation Xrotation
                    JOINT RightHandPinky2
                    {
                      OFFSET -5.553177 -2e-06 0.0
                      CHANNELS 3 Zrotation Yrotation Xrotation
                      JOINT RightHandPinky3
                      {
                        OFFSET -3.062664 -1e-06 -4e-06
                        CHANNELS 3 Zrotation Yrotation Xrotation
                        JOINT RightHandPinky4
                        {
                          OFFSET -1.546529 2e-06 4e-06
                          CHANNELS 3 Zrotation Yrotation Xrotation
                          JOINT RightHandPinkyEnd
                          {
                            OFFSET -1.952341 0.0 -4e-06
                            CHANNELS 3 Zrotation Yrotation Xrotation
                          }
                        }
                      }
                    }
                  }
                }
              }
            }
          }
        }
      }
    }
    JOINT LeftLeg
    {
      OFFSET -8.443107 2.567604 10.043214
      CHANNELS 3 Zrotation Yrotation Xrotation
      JOINT LeftShin
      {
        OFFSET 43.229198 1e-06 -1e-06
        CHANNELS 3 Zrotation Yrotation Xrotation
        JOINT LeftFoot
        {
          OFFSET 42.298611 1e-06 1e-06
          CHANNELS 3 Zrotation Yrotation Xrotation
          JOINT LeftToeBase
          {
            OFFSET 14.165858 1e-06 0.0
            CHANNELS 3 Zrotation Yrotation Xrotation
            JOINT LeftToeEnd
            {
              OFFSET 6.7141 -0.234461 0.0
              CHANNELS 3 Zrotation Yrotation Xrotation
            }
          }
        }
      }
    }
    JOINT RightLeg
    {
      OFFSET -8.303923 2.592729 -10.047278
      CHANNELS 3 Zrotation Yrotation Xrotation
      JOINT RightShin
      {
        OFFSET -43.369682 0.0 1e-06
        CHANNELS 3 Zrotation Yrotation Xrotation
        JOINT RightFoot
        {
          OFFSET -42.260784 4e-06 2e-06
          CHANNELS 3 Zrotation Yrotation Xrotation
          JOINT RightToeBase
          {
            OFFSET -14.222245 -2e-06 -1e-06
            CHANNELS 3 Zrotation Yrotation Xrotation
            JOINT RightToeEnd
            {
              OFFSET -6.660062 0.232574 -2e-06
              CHANNELS 3 Zrotation Yrotation Xrotation
            }
          }
        }
      }
    }
  }
}
MOTION
Frames: 5
Frame Time: 0.03333333333333333
0.0 0.0 0.0 0.0 -0.0 0.0 0.171103 98.927376 -0.253432 89.853432 3.178108 90.390732 -2.00217 0.255342 0.142343 -11.727548 -0.515586 0.11141 16.675924 -0.902645 -2.80417 24.183706 -3.147819 2.613451 -2.529675 -0.50713 0.571798 -34.908966 1.542448 -1.669286 6e-06 0.0 0.0 0.09752 0.006228 -0.000101 0.154227 -0.03735 -0.01883 0.157778 0.044344 0.02727 -150.867188 -75.156898 168.534317 32.347744 -25.473431 -47.334576 48.284332 1.320094 -0.038734 -2.480387 11.189857 -85.96553 17.636633 -26.322737 52.411213 -19.466667 -14.3956 29.410398 1e-06 -8.774824 -4e-06 16.283808 -17.259394 6.175627 -0.609776 -1.795654 -3.889329 -4.807091 -11.046814 -2.937852 2e-06 -20.976025 1e-06 -5.019969 -25.033562 -4.031886 7e-06 -0.0 2e-06 -10.634537 -5.686973 -3.565587 10.573275 -17.922955 -3.113901 3e-06 -13.821213 -2e-06 -0.501777 -31.181511 -4.027023 -11.316354 -59.540371 7.052872 -13.982718 -7.150199 -2.875042 13.772735 -8.401492 -3.218243 0.347733 -34.211559 0.771653 -0.96303 -17.733376 2.621024 -1e-06 0.0 1e-06 -17.34643 -20.095226 -4.201782 21.757568 -1.638372 3.86643 0.0 -6.338825 -2e-06 -1.697595 -22.591751 -6.194006 2e-06 -7e-06 -1e-06 25.20315 -80.547653 173.5616 32.620018 -30.205467 -64.126564 50.451454 -1.162715 -0.00139 -2.871874 16.390339 -77.299881 22.182116 -20.3759 49.933346 -16.701818 -16.743532 28.47654 -1e-06 -12.690609 -1e-06 15.858651 -17.820913 3.709804 -0.105921 -1.513858 -4.275882 -5.039042 -5.612872 -2.953556 4e-06 -11.020526 -5e-06 -6.111303 -15.895338 -3.840471 0.0 0.0 -1e-06 -10.283377 -5.680293 -4.34184 11.028296 -11.302406 -2.372635 -1.38427 -14.238583 -6.320124 -0.625443 -26.924194 -3.827605 -5.057188 -50.186646 -2.456725 -13.70853 -7.363481 -3.720937 18.141153 -14.052741 -3.242678 6e-06 -18.78727 -3e-06 -0.429712 -8.456047 2.555505 1e-06 1e-06 -1e-06 -15.923543 -20.094492 -5.473586 30.419218 -7.190827 1.735928 2e-06 -8.162929 -0.0 -1.861902 -22.861483 -6.167946 -1e-06 -3e-06 -2e-06 172.395737 -5.671571 -10.642006 23.771612 -0.001017 0.092792 -81.369781 1.822742 -4.107888 -7.229545 1.543201 2.097151 -0.999999 1e-06 0.0 -6.42662 -5.087811 -7.936699 22.951195 -0.032415 0.066802 -81.3871 -4.105663 -7.556786 -7.649834 0.722882 1.625522 -1.000002 -0.0 -0.0 
0.0 0.0 0.0 0.0 -0.0 0.0 0.198744 98.918785 -0.30266 89.874557 3.155679 90.378304 -1.966789 0.240741 0.144392 -11.72064 -0.499096 0.130387 16.650511 -0.903699 -2.817269 24.191082 -3.157151 2.602204 -2.521756 -0.522903 0.538442 -34.839935 1.552582 -1.72461 5e-06 -0.0 -0.0 0.094988 0.01086 0.015672 0.164479 -0.035883 -0.003883 0.167409 0.052257 0.043962 -151.071091 -75.141319 168.694427 32.358093 -25.405621 -47.330879 48.453754 1.305576 -0.000567 -2.510036 11.068034 -85.784019 17.636627 -26.322735 52.411213 -19.466665 -14.395597 29.410398 0.0 -8.774822 -3e-06 16.284048 -17.264008 6.14819 -0.609778 -1.795655 -3.889327 -4.80709 -11.046812 -2.937853 3e-06 -20.976019 -1e-06 -5.019969 -25.033558 -4.031884 4e-06 1e-06 1e-06 -10.634535 -5.686974 -3.565588 10.573277 -17.922955 -3.113903 4e-06 -13.821211 -3e-06 -0.501775 -31.181511 -4.027022 -11.286705 -59.488632 7.010448 -13.982714 -7.150198 -2.875044 13.772729 -8.401493 -3.218242 0.347731 -34.211555 0.771655 -0.963029 -17.733372 2.621022 -1e-06 2e-06 1e-06 -17.346422 -20.095221 -4.201784 21.757559 -1.638373 3.866427 -2e-06 -6.338824 -1e-06 -1.697589 -22.591745 -6.194006 0.0 -4e-06 -2e-06 25.172998 -80.675926 173.602295 32.771591 -30.099199 -64.354088 50.773487 -1.156829 0.067794 -3.047419 16.515907 -77.467224 22.18211 -20.3759 49.933323 -16.701813 -16.743526 28.47653 -3e-06 -12.690601 -0.0 15.855931 -17.784168 3.734429 -0.105919 -1.513857 -4.27588 -5.039037 -5.612868 -2.953556 5e-06 -11.020525 -3e-06 -6.111297 -15.895332 -3.84047 -1e-06 -0.0 -1e-06 -10.283369 -5.680287 -4.341839 11.028292 -11.302406 -2.372633 -1.384269 -14.238579 -6.320121 -0.625441 -26.924189 -3.8276 -5.071637 -50.191467 -2.411728 -13.708524 -7.363475 -3.72094 18.141146 -14.052739 -3.242674 6e-06 -18.787268 -1e-06 -0.429713 -8.456043 2.555503 2e-06 1e-06 -1e-06 -15.923536 -20.094484 -5.473585 30.41921 -7.190824 1.735925 2e-06 -8.162926 -0.0 -1.861901 -22.861473 -6.167942 -2e-06 -3e-06 -1e-06 172.324524 -5.647183 -10.655753 23.825771 -0.005569 0.100253 -81.37027 1.825611 -4.093852 -7.238306 1.544935 2.095829 -0.999999 1e-06 0.0 -6.517757 -5.132779 -7.918639 23.039972 -0.029824 0.069374 -81.402992 -4.112408 -7.577528 -7.659146 0.72037 1.620788 -1.000002 0.0 -0.0 
0.0 0.0 0.0 0.0 -0.0 0.0 0.220757 98.914253 -0.345303 89.896469 3.114488 90.362907 -1.936094 0.226245 0.12762 -11.725109 -0.493043 0.146871 16.611462 -0.906647 -2.816905 24.137447 -3.149273 2.592457 -2.516903 -0.54823 0.52213 -34.757847 1.548047 -1.771467 5e-06 -0.0 0.0 0.093949 0.014037 0.028077 0.171401 -0.032957 0.007584 0.172434 0.055931 0.057147 -151.205261 -75.165512 168.7845 32.39801 -25.365005 -47.324585 48.608868 1.338201 0.015194 -2.530031 10.984697 -85.472328 17.636629 -26.322737 52.411213 -19.466663 -14.395604 29.410395 -1e-06 -8.774822 -3e-06 16.259642 -17.294266 6.151659 -0.609775 -1.795653 -3.88933 -4.807088 -11.046813 -2.937852 5e-06 -20.976019 1e-06 -5.019968 -25.03356 -4.031883 6e-06 0.0 2e-06 -10.634533 -5.686967 -3.565588 10.573274 -17.922953 -3.113899 4e-06 -13.821209 -0.0 -0.501776 -31.181501 -4.027014 -11.272259 -59.408516 7.000023 -13.982714 -7.150197 -2.875043 13.772731 -8.401493 -3.218243 0.347734 -34.211555 0.771657 -0.963031 -17.73337 2.621024 -2e-06 1e-06 -0.0 -17.346415 -20.095215 -4.201785 21.757555 -1.638375 3.866427 1e-06 -6.338822 -0.0 -1.697588 -22.591743 -6.194006 1e-06 -5e-06 -2e-06 25.078367 -80.808159 173.678101 32.940151 -30.033316 -64.554192 51.121117 -1.115662 0.11684 -3.224444 16.675915 -77.473679 22.182117 -20.375898 49.933315 -16.701813 -16.743525 28.47653 -4e-06 -12.6906 -1e-06 15.844526 -17.768301 3.737671 -0.105922 -1.513859 -4.27588 -5.039039 -5.61287 -2.953557 7e-06 -11.020525 -5e-06 -6.111298 -15.89533 -3.840471 -3e-06 1e-06 0.0 -10.283371 -5.680288 -4.341839 11.028292 -11.302405 -2.372632 -1.384264 -14.238575 -6.32012 -0.625439 -26.924183 -3.827598 -5.05348 -50.122543 -2.398109 -13.708524 -7.363474 -3.720942 18.141148 -14.05274 -3.242674 8e-06 -18.787266 -1e-06 -0.429712 -8.456043 2.555503 1e-06 0.0 2e-06 -15.923532 -20.094482 -5.473585 30.419205 -7.190827 1.735924 2e-06 -8.162924 1e-06 -1.861898 -22.861469 -6.167941 1e-06 -4e-06 -0.0 172.247574 -5.625669 -10.675097 23.855968 -0.009742 0.104217 -81.3582 1.825497 -4.091381 -7.248674 1.538021 2.091612 -0.999998 0.0 -0.0 -6.615229 -5.18351 -7.950138 23.110626 -0.026091 0.063434 -81.413658 -4.071769 -7.574197 -7.654017 0.713856 1.615616 -1.000003 -0.0 -0.0 
0.0 0.0 0.0 0.0 -0.0 0.0 0.237276 98.911522 -0.377906 89.921799 3.06605 90.333618 -1.912451 0.206772 0.100532 -11.72377 -0.494329 0.15424 16.551462 -0.920626 -2.807412 24.022831 -3.134621 2.58278 -2.526095 -0.561325 0.533354 -34.650585 1.550091 -1.789499 5e-06 0.0 0.0 0.091735 0.014568 0.031941 0.168662 -0.028959 0.010834 0.169167 0.053146 0.061032 -151.274261 -75.207024 168.829773 32.43821 -25.338482 -47.314079 48.753139 1.404893 0.009823 -2.501855 10.982542 -85.147873 17.636625 -26.322718 52.411179 -19.466661 -14.395597 29.410385 -0.0 -8.774819 -4e-06 16.228729 -17.339561 6.163422 -0.609776 -1.795654 -3.889329 -4.807086 -11.046811 -2.937852 4e-06 -20.976019 0.0 -5.019968 -25.033554 -4.031885 7e-06 -3e-06 0.0 -10.634533 -5.686972 -3.565588 10.573271 -17.922947 -3.1139 4e-06 -13.821205 -3e-06 -0.501777 -31.181501 -4.027019 -11.268549 -59.347466 6.998406 -13.982711 -7.150198 -2.875042 13.772729 -8.401491 -3.218243 0.347737 -34.211552 0.771651 -0.963028 -17.73337 2.621017 -1e-06 0.0 -0.0 -17.346411 -20.095217 -4.201783 21.757555 -1.638374 3.866426 1e-06 -6.338822 -0.0 -1.697585 -22.591738 -6.194006 -1e-06 -3e-06 -0.0 24.740196 -80.94175 173.954514 33.100464 -30.032431 -64.759659 51.49831 -1.089549 0.166296 -3.35668 16.853168 -77.305229 22.18211 -20.3759 49.933323 -16.701811 -16.74353 28.476534 -4e-06 -12.690604 0.0 15.822662 -17.761591 3.729873 -0.105919 -1.513858 -4.275884 -5.03904 -5.61287 -2.953556 4e-06 -11.020521 -4e-06 -6.111297 -15.89533 -3.840472 -1e-06 1e-06 -1e-06 -10.283371 -5.68029 -4.341841 11.028297 -11.302406 -2.372634 -1.384271 -14.238582 -6.320121 -0.625441 -26.924191 -3.827604 -5.011449 -50.004112 -2.404976 -13.708526 -7.363477 -3.720938 18.14115 -14.052739 -3.242678 7e-06 -18.78727 -2e-06 -0.429713 -8.456043 2.555506 2e-06 -1e-06 0.0 -15.923536 -20.094482 -5.473586 30.419214 -7.190826 1.735927 3e-06 -8.162928 1e-06 -1.861901 -22.861473 -6.167943 -1e-06 -3e-06 -1e-06 172.180771 -5.606297 -10.706727 23.869005 -0.010563 0.101628 -81.344055 1.83366 -4.119474 -7.262985 1.522838 2.087677 -0.999999 -0.0 0.0 -6.716168 -5.230678 -7.981021 23.177422 -0.023493 0.054252 -81.429016 -4.015036 -7.562133 -7.630797 0.704702 1.611144 -1.000002 0.0 -0.0 
0.0 0.0 0.0 0.0 -0.0 0.0 0.245179 98.923973 -0.402444 89.945175 3.029865 90.284531 -1.888273 0.186588 0.075578 -11.710274 -0.498556 0.15001 16.483028 -0.947809 -2.79813 23.857437 -3.119986 2.540168 -2.538037 -0.557816 0.573242 -34.531971 1.574085 -1.78543 5e-06 -0.0 -0.0 0.089797 0.012013 0.023711 0.159741 -0.026248 0.002653 0.161816 0.045334 0.051639 -151.316193 -75.254013 168.854736 32.451733 -25.32782 -47.215752 48.913979 1.504579 -0.009603 -2.476621 11.062355 -84.955261 17.636623 -26.322721 52.411179 -19.46666 -14.395596 29.410381 -0.0 -8.77482 -3e-06 16.183193 -17.388491 6.197969 -0.609776 -1.795655 -3.889327 -4.807092 -11.046809 -2.93785 3e-06 -20.976017 -0.0 -5.019969 -25.033552 -4.031881 6e-06 -0.0 -0.0 -10.634533 -5.686972 -3.565587 10.573272 -17.922949 -3.113898 4e-06 -13.821206 -3e-06 -0.501781 -31.181505 -4.027016 -11.280105 -59.329174 7.009792 -13.982714 -7.150198 -2.875042 13.772729 -8.401491 -3.21824 0.347733 -34.211555 0.771654 -0.963032 -17.73337 2.621018 1e-06 0.0 2e-06 -17.346422 -20.095217 -4.201778 21.757557 -1.638373 3.866426 1e-06 -6.338823 -0.0 -1.697592 -22.591743 -6.194004 0.0 -4e-06 -2e-06 24.36301 -81.068375 174.270874 33.308479 -30.069201 -65.031075 51.914688 -1.116974 0.205416 -3.471151 17.050194 -77.056511 22.182106 -20.375889 49.933319 -16.701809 -16.743525 28.476528 -4e-06 -12.690598 -0.0 15.831571 -17.774828 3.699207 -0.10592 -1.513856 -4.275879 -5.039039 -5.612872 -2.953557 5e-06 -11.02052 -5e-06 -6.111296 -15.89533 -3.840471 1e-06 1e-06 -2e-06 -10.283369 -5.680288 -4.341834 11.02829 -11.302402 -2.372636 -1.384265 -14.238576 -6.320121 -0.625436 -26.924181 -3.827602 -4.973634 -49.923397 -2.421121 -13.708523 -7.363474 -3.720936 18.141146 -14.052738 -3.242677 9e-06 -18.787266 -4e-06 -0.429708 -8.456041 2.555502 2e-06 0.0 2e-06 -15.923532 -20.094479 -5.473586 30.419205 -7.190824 1.735925 2e-06 -8.162922 -1e-06 -1.861897 -22.861467 -6.167942 -1e-06 -4e-06 -1e-06 172.185593 -5.58541 -10.749562 23.775938 -0.006123 0.095692 -81.283066 1.844651 -4.196446 -7.275109 1.506835 2.085123 -1.0 1e-06 0.0 -6.755306 -5.257395 -7.999759 23.140617 -0.026643 0.056467 -81.394012 -3.970824 -7.549266 -7.611892 0.697843 1.608112 -1.000001 -1e-06 -0.0 
